<?xml version="1.0" encoding="utf-8"?>
<!-- Generator: Adobe Illustrator 22.1.0, SVG Export Plug-In . SVG Version: 6.00 Build 0)  -->
<svg version="1.1" id="Ebene_1" xmlns="http://www.w3.org/2000/svg" xmlns:xlink="http://www.w3.org/1999/xlink" x="0px" y="0px"
	 viewBox="0 0 132.5 50.5" style="enable-background:new 0 0 132.5 50.5;" xml:space="preserve">
<style type="text/css">
	.st0{fill:#F49714;}
	.st1{fill:#808181;}
</style>
<g>
	<path class="st0" d="M71.5,7.5l-15,21.6h19c2.7-3.1,4.3-7,4.3-11.4c0-9.6-7.7-17.4-17.4-17.4c-5,0-9.5,2.1-12.7,5.6h21.8V7.5z"/>
</g>
<g>
	<path class="st1" d="M54.1,29.4L69.6,7.5H48.3c-2.1,2.9-3.4,6.5-3.4,10.2c0,9.6,7.7,17.4,17.4,17.4c4.5,0,8.4-1.7,11.5-4.4H54.1
		C54.1,30.7,54.1,29.4,54.1,29.4z"/>
</g>
<g>
	<path class="st1" d="M19.2,29.5c-2.6,0.9-5.8,1.3-9.6,1.3C3.2,30.8,0,27.2,0,19.7C0,12.9,3.4,9.5,10.1,9.5c1.9,0,4.2,0.3,6.9,1V4.7
		h2.2V29.5z M17.1,12.6c-2.6-0.7-4.9-1.1-6.9-1.1c-5.3,0-7.8,2.7-7.8,8c0,6.3,2.6,9.3,7.8,9.3c2,0,4.3-0.3,6.9-0.8V12.6z"/>
</g>
<g>
	<path class="st1" d="M41.4,20.6H25.3c0,5.6,3.3,8.3,9.9,8.3c1.9,0,3.8-0.2,5.7-0.6v1.8c-1.9,0.4-4.2,0.6-6.9,0.6
		c-7.2,0-10.8-3.7-10.8-10.9c0-7,3.4-10.4,10.2-10.4C39.7,9.5,42.4,13.2,41.4,20.6z M25.3,18.7h14c0.3-5-1.9-7.4-6.6-7.4
		C28.1,11.3,25.6,13.8,25.3,18.7z"/>
</g>
<g>
	<path class="st1" d="M100.9,20.6h-16c0,5.6,3.3,8.3,9.9,8.3c1.9,0,3.8-0.2,5.7-0.6v1.8c-1.9,0.4-4.2,0.6-6.9,0.6
		c-7.2,0-10.8-3.7-10.8-10.9c0-7,3.4-10.4,10.2-10.4C99.2,9.5,101.9,13.2,100.9,20.6z M84.9,18.7h14c0.3-5-1.9-7.4-6.6-7.4
		C87.6,11.3,85.1,13.8,84.9,18.7z"/>
</g>
<g>
	<path class="st1" d="M105.5,30.8V9.5h1.5l0.2,2.7c2.3-1.7,3.7-2.7,6.4-2.7c2.6,0,4.4,1,5.4,3c0,0,2.3-3,5.9-3
		c4.5,0,6.8,2.4,6.8,7.1v14.3h-2.2V16.5c0-3.5-1.8-5.4-5-5.2c-1.9,0.1-3.1,1.2-4.8,2.8v16.7h-2.2V16.2c0-3.3-1.5-4.9-4.6-4.9
		c-2,0-3.1,0.9-5.4,2.8v16.7C107.5,30.8,105.5,30.8,105.5,30.8z"/>
</g>
<g>
	<path class="st1" d="M1.4,50.1v-1.2c0.9,0.3,1.8,0.4,2.8,0.4c1.2,0,1.9-0.4,1.9-1.1s-0.4-1-1.3-1H3.6c-1.7,0-2.5-0.8-2.5-2.3
		s1.1-2.2,3.2-2.2c0.9,0,1.8,0.1,2.8,0.4v1.1c-0.9-0.3-1.8-0.4-2.8-0.4c-1.3,0-1.9,0.4-1.9,1.1s0.4,1,1.2,1h1.1
		c1.8,0,2.7,0.8,2.7,2.3s-1.1,2.2-3.2,2.2C3.3,50.4,2.3,50.3,1.4,50.1z"/>
	<path class="st1" d="M12.5,42.8c2.2,0,3.3,1.1,3.3,3.3c0,0.3,0,0.6-0.1,1h-5.4c0,1.6,0.9,2.4,2.8,2.4c0.9,0,1.7-0.1,2.3-0.3v1.1
		c-0.7,0.2-1.5,0.3-2.5,0.3c-2.7,0-4-1.3-4-4C8.9,43.9,10.1,42.8,12.5,42.8z M10.3,45.8h4.2c0-1.4-0.7-2-2-2
		C11.1,43.8,10.4,44.4,10.3,45.8z"/>
	<path class="st1" d="M17.8,50.4v-7.6h0.9l0.2,1c0.8-0.7,1.7-1,2.6-1c1.9,0,2.9,1,2.9,2.9v4.9H23v-4.9c0-1.2-0.6-1.7-1.7-1.7
		c-0.8,0-1.5,0.3-2.2,1v5.6L17.8,50.4L17.8,50.4z"/>
	<path class="st1" d="M26.6,50.1v-1.2c0.9,0.3,1.8,0.4,2.8,0.4c1.2,0,1.9-0.4,1.9-1.1s-0.4-1-1.3-1h-1.1c-1.7,0-2.5-0.8-2.5-2.3
		s1.1-2.2,3.2-2.2c0.9,0,1.8,0.1,2.8,0.4v1.1c-0.9-0.3-1.8-0.4-2.8-0.4c-1.3,0-1.9,0.4-1.9,1.1s0.4,1,1.2,1H30
		c1.8,0,2.7,0.8,2.7,2.3s-1.1,2.2-3.2,2.2C28.5,50.4,27.5,50.3,26.6,50.1z"/>
	<path class="st1" d="M37.7,42.8c2.2,0,3.3,1.1,3.3,3.3c0,0.3,0,0.6-0.1,1h-5.4c0,1.6,0.9,2.4,2.8,2.4c0.9,0,1.7-0.1,2.3-0.3v1.1
		c-0.7,0.2-1.5,0.3-2.5,0.3c-2.7,0-4-1.3-4-4C34.2,43.9,35.3,42.8,37.7,42.8z M35.5,45.8h4.2c0-1.4-0.7-2-2-2
		C36.3,43.8,35.6,44.4,35.5,45.8z"/>
	<path class="st1" d="M63.3,50.2c-0.6,0.1-1.3,0.2-2.1,0.2c-2.8,0-4.1-1.3-4.1-4c0-2.5,1.4-3.7,4.1-3.7c0.7,0,1.4,0.1,2.1,0.2V44
		c-0.6-0.1-1.4-0.2-2.1-0.2c-1.8,0-2.7,0.9-2.7,2.6c0,1.9,0.9,2.9,2.7,2.9c0.8,0,1.5-0.1,2.1-0.2V50.2z"/>
	<path class="st1" d="M65.2,50.4V40h1.4v3.6c0.7-0.6,1.5-0.8,2.4-0.8c1.9,0,2.9,1,2.9,2.9v4.9h-1.4v-4.9c0-1.2-0.6-1.7-1.7-1.7
		c-0.8,0-1.5,0.3-2.2,1v5.6L65.2,50.4L65.2,50.4z"/>
	<path class="st1" d="M77.3,42.8c2.2,0,3.3,1.1,3.3,3.3c0,0.3,0,0.6-0.1,1h-5.4c0,1.6,0.9,2.4,2.8,2.4c0.9,0,1.7-0.1,2.3-0.3v1.1
		c-0.7,0.2-1.5,0.3-2.5,0.3c-2.7,0-4-1.3-4-4C73.9,43.9,75.1,42.8,77.3,42.8z M75.2,45.8h4.2c0-1.4-0.7-2-2-2S75.3,44.4,75.2,45.8z"
		/>
	<path class="st1" d="M88.5,50.2c-0.6,0.1-1.3,0.2-2.1,0.2c-2.8,0-4.1-1.3-4.1-4c0-2.5,1.4-3.7,4.1-3.7c0.7,0,1.4,0.1,2.1,0.2V44
		c-0.6-0.1-1.4-0.2-2.1-0.2c-1.8,0-2.7,0.9-2.7,2.6c0,1.9,0.9,2.9,2.7,2.9c0.8,0,1.5-0.1,2.1-0.2V50.2z"/>
	<path class="st1" d="M90.3,50.4V40h1.4v3.4c0.8-0.4,1.6-0.6,2.6-0.6c1.9,0,2.9,0.7,2.9,2.2c0,1.1-0.7,1.8-2.2,2.2l2.5,3.3h-1.7
		l-2.5-3.3v-0.6c1.7-0.2,2.6-0.7,2.6-1.6c0-0.7-0.5-1.1-1.6-1.1c-0.9,0-1.7,0.2-2.5,0.7v5.9h-1.5V50.4z"/>
	<path class="st1" d="M111.8,48.1c0-1.6,1-2.4,3.1-2.4c0.7,0,1.3,0,2,0.1v-0.7c0-0.9-0.7-1.3-2.1-1.3c-0.8,0-1.6,0.1-2.4,0.4v-1.1
		c0.8-0.2,1.7-0.4,2.4-0.4c2.3,0,3.5,0.8,3.5,2.4v5.3h-0.8l-0.5-0.8c-0.8,0.5-1.6,0.8-2.5,0.8C112.8,50.4,111.8,49.6,111.8,48.1z
		 M115,46.8c-1.2,0-1.8,0.4-1.8,1.3s0.5,1.3,1.4,1.3s1.7-0.3,2.4-0.8V47C116.3,46.9,115.7,46.8,115,46.8z"/>
	<path class="st1" d="M126.5,50.2c-0.6,0.1-1.3,0.2-2.1,0.2c-2.8,0-4.1-1.3-4.1-4c0-2.5,1.4-3.7,4.1-3.7c0.7,0,1.4,0.1,2.1,0.2V44
		c-0.6-0.1-1.4-0.2-2.1-0.2c-1.8,0-2.7,0.9-2.7,2.6c0,1.9,0.9,2.9,2.7,2.9c0.8,0,1.5-0.1,2.1-0.2V50.2z"/>
	<path class="st1" d="M128.3,41.5h0.9l0.3,1.3h2.1v1.1h-1.9v4.4c0,0.7,0.3,1.1,0.9,1.1h0.9v1.1h-1.3c-1.3,0-1.9-0.7-1.9-2.1V41.5
		L128.3,41.5z"/>
</g>
<path class="st0" d="M104.9,42.8v7.6h-1v-7.6H104.9z"/>
<path class="st0" d="M50,42.8v7.6h-1v-7.6H50z"/>
</svg>
